<svg width="624" height="456" viewBox="0 0 624 456" fill="none" xmlns="http://www.w3.org/2000/svg">
<g id="phone-canvas" filter="url(#filter0_d)">
<rect width="616" height="448" transform="translate(4)" fill="white"/>
<g id="phone">
<rect id="Rectangle 1" x="228" y="63" width="185" height="304" rx="13" fill="#0A0909"/>
<rect id="Rectangle 2" x="233" y="73" width="175" height="294" rx="13" fill="#242222"/>
<rect id="Rectangle 3" x="282.5" y="70.5" width="75" height="15" rx="7.5" stroke="#575555" stroke-width="5"/>
<rect id="Rectangle 4" x="241" y="99" width="159" height="204" fill="#E9F1FF"/>
<circle id="Ellipse 1" cx="320" cy="334" r="17.5" stroke="#575555" stroke-width="5"/>
</g>
<g id="image-collection">
<rect id="Rectangle 5" x="249" y="108" width="142" height="100" fill="white"/>
<path id="Polygon 2" d="M320.5 113L363.368 193.25H277.632L320.5 113Z" fill="#3FC71D"/>
<path id="Polygon 1" d="M294 125L332.971 199.25H255.029L294 125Z" fill="#50A568"/>
</g>
<rect id="Rectangle 6" x="249" y="215" width="66" height="36" fill="white"/>
<rect id="Rectangle 7" x="320" y="215" width="66" height="36" fill="white"/>
<rect id="Rectangle 8" x="249" y="263" width="137" height="9" fill="black"/>
<rect id="Rectangle 9" x="249" y="278" width="137" height="5" fill="#C4C4C4"/>
<rect id="Rectangle 10" x="249" y="288" width="137" height="5" fill="#C4C4C4"/>
</g>
<defs>
<filter id="filter0_d" x="0" y="0" width="624" height="456" filterUnits="userSpaceOnUse" color-interpolation-filters="sRGB">
<feFlood flood-opacity="0" result="BackgroundImageFix"/>
<feColorMatrix in="SourceAlpha" type="matrix" values="0 0 0 0 0 0 0 0 0 0 0 0 0 0 0 0 0 0 127 0"/>
<feOffset dy="4"/>
<feGaussianBlur stdDeviation="2"/>
<feColorMatrix type="matrix" values="0 0 0 0 0 0 0 0 0 0 0 0 0 0 0 0 0 0 0.25 0"/>
<feBlend mode="normal" in2="BackgroundImageFix" result="effect1_dropShadow"/>
<feBlend mode="normal" in="SourceGraphic" in2="effect1_dropShadow" result="shape"/>
</filter>
</defs>
</svg>
