<svg width="616" height="448" viewBox="0 0 616 448" fill="none" xmlns="http://www.w3.org/2000/svg">
<g id="tablet-canvas">
<rect width="616" height="448" fill="white"/>
<g id="tablet">
<rect id="Rectangle 1" x="71.5" y="63.5" width="473" height="303" rx="19.5" fill="black" stroke="white"/>
<rect id="Rectangle 2" x="94" y="76" width="428" height="276" fill="#E9F1FF"/>
<circle id="Ellipse 1" cx="533.5" cy="214.5" r="5.5" fill="#C4C4C4"/>
<rect id="Rectangle 3" x="82" y="201" width="5" height="27" rx="2.5" stroke="#C4C4C4" stroke-width="2"/>
</g>
<g id="tablet-image">
<rect id="Rectangle 4" x="317" y="92" width="180" height="160.633" fill="white"/>
<path id="Polygon 1" d="M426.459 115.797L479.123 238.949H373.796L426.459 115.797Z" fill="#3FC71D"/>
<path id="Polygon 2" d="M377.811 143.165L430.475 245.791H325.147L377.811 143.165Z" fill="#50A568"/>
</g>
<rect id="Rectangle 5" x="117" y="92" width="100" height="55" fill="white"/>
<rect id="Rectangle 6" x="202" y="165" width="100" height="55" fill="white"/>
<rect id="Rectangle 7" x="317" y="287" width="180" height="16" fill="black"/>
<rect id="Rectangle 8" x="112" y="238" width="190" height="9" fill="#C4C4C4"/>
<rect id="Rectangle 9" x="112" y="263" width="190" height="9" fill="#C4C4C4"/>
<rect id="Rectangle 10" x="112" y="288" width="190" height="4" fill="#C4C4C4"/>
<rect id="Rectangle 11" x="112" y="299" width="190" height="4" fill="#C4C4C4"/>
</g>
</svg>
